<svg xmlns="http://www.w3.org/2000/svg" viewBox="0 0 121.14 286.45"><g id="레이어_2" data-name="레이어 2"><g id="레이어_1-2" data-name="레이어 1"><path d="M119.12,19.37a64.22,64.22,0,0,0-6.86-15.68L110,0l-3.9.72a2.36,2.36,0,0,0-.38.08l-.28.07L105,1c-.33.09-.64.19-1,.29-.61.2-1.19.41-1.77.64-1.15.45-2.24,1-3.32,1.51a39.12,39.12,0,0,0-6,3.85,40.44,40.44,0,0,0-9.26,10.39,47.62,47.62,0,0,0-3.11,6.07,46,46,0,0,0-2.13,6.32,58.12,58.12,0,0,0-1.86,12.85v.21s-.58,7-.65,34.46h0c-1.16.67-2.35,1.32-3.56,2S70.13,80.75,69,81.35l-3.42,1.79L62.14,85c-4.61,2.51-9.31,5.16-13.87,8.14a122.54,122.54,0,0,0-13.09,9.94l-1.54,1.37-.77.69-.74.72-2.94,2.88c-1,1-1.87,2-2.81,3L25,113.25l-1.31,1.57c-.88,1.05-1.75,2.1-2.6,3.16l-2.44,3.27-1.21,1.63-1.14,1.68L14,127.93a64.94,64.94,0,0,0-7.27,15.24A50.5,50.5,0,0,0,4.47,160a45.68,45.68,0,0,0,1.11,8.36l.22,1c.08.34.18.67.28,1l.56,2c.46,1.31.86,2.63,1.42,3.89a56.86,56.86,0,0,0,8.23,13.89c.39.49.79,1,1.19,1.44h0a46.37,46.37,0,0,0,11.19,10.5h0c4.09,3.16,12.67,6.8,12.67,6.8a71.49,71.49,0,0,0,13.5,4.91,63.58,63.58,0,0,0,7.2,1.39,58.9,58.9,0,0,0,7.42.54,53.32,53.32,0,0,0,6.43-.3v28.4a43.51,43.51,0,0,1-3.56,17.54c-4.75,10.87-15.53,23-39.83,19.27A33.7,33.7,0,0,1,17,274.14c-4.55-4.35-5.21-8.57-4.68-11.74a23,23,0,0,0,15.15,5.65c12.57,0,22.79-9.93,22.79-22.15a21.46,21.46,0,0,0-1.3-7.36h0c-1.14-7.23-9.37-14-18.74-15.49-5.35-.83-18.69-.92-27.17,16-7.69,15.39,1.09,28.66,5.22,33.65a37.81,37.81,0,0,0,23.45,13,62.09,62.09,0,0,0,9.48.76c8.25,0,15.44-1.91,21.46-5.71A37.77,37.77,0,0,0,77,263.44a48.44,48.44,0,0,0,4-19.57V214.73c1.18-.23,2.37-.49,3.55-.8a58.2,58.2,0,0,0,7.3-2.5c1.2-.51,2.38-1.05,3.54-1.63s2.3-1.24,3.42-1.92a48.32,48.32,0,0,0,6.48-4.69c.52-.45,1-.91,1.56-1.43.27-.26.52-.52.84-.86l.15-.18.17-.2.18-.21.34-.43.68-.85c.22-.29.41-.57.62-.85.41-.57.82-1.13,1.19-1.73a40.1,40.1,0,0,0-9.06-53.26,33.4,33.4,0,0,0-16-6.86,34.6,34.6,0,0,0-5-.31V92.48l2.23-1.2C85.56,90,88,88.56,90.31,87a80.75,80.75,0,0,0,6.9-5.15A79,79,0,0,0,103.47,76c1-1,2-2.12,2.89-3.21s1.81-2.25,2.66-3.42A69.17,69.17,0,0,0,113.74,62a61.38,61.38,0,0,0,3.7-8A58,58,0,0,0,121.1,36.8,56.9,56.9,0,0,0,119.12,19.37ZM75.91,204.28a59.25,59.25,0,0,1-7.09,1.59c-2.09.32-4.22.52-6.37.64s-4.32.1-6.52,0c-22.81-1.23-32.88-11.82-37.08-18.84a60.6,60.6,0,0,1-2.76-6.25c-.46-1.15-.84-2.33-1.22-3.5s-.69-2.35-.94-3.55-.48-2.38-.7-3.56L13,169.05c-.05-.42-.11-1.11-.14-1.54l0-.24a45.18,45.18,0,0,1,.06-7.08,44.4,44.4,0,0,1,3.56-13.43,57.57,57.57,0,0,1,7.32-12l2.32-2.88,1.15-1.45,1.21-1.38,2.43-2.76c.84-.89,1.71-1.75,2.55-2.63l1.26-1.32L36,121.08c.88-.83,1.75-1.68,2.64-2.5l2.75-2.37.69-.59.71-.56,1.43-1.12a107,107,0,0,1,12-8.25c4.18-2.52,8.53-4.87,13.06-7.16,2.18-1.1,4.4-2.22,6.64-3.38,0,10,0,25.24,0,41.31a32.42,32.42,0,0,0-7,2,32.91,32.91,0,0,0-7.41,4.23,30.76,30.76,0,0,0-5.94,6,30.23,30.23,0,0,0-2.36,3.57,24.75,24.75,0,0,0-1.75,3.94,25.15,25.15,0,0,0-.09,16.46,24.33,24.33,0,0,0,3.84,7,23.61,23.61,0,0,0,2.69,2.87A20.2,20.2,0,0,0,61,184.83a18,18,0,0,0,7.1,2.67,16.39,16.39,0,0,0,7.17-.57,16.91,16.91,0,0,1-11.48-5.51,19.45,19.45,0,0,1-3.33-5.08,17.91,17.91,0,0,1-1.53-5.6,17.15,17.15,0,0,1,.23-5.55,16.67,16.67,0,0,1,1.85-5A20.27,20.27,0,0,1,62.43,158a19.94,19.94,0,0,1,3.86-3.69,19,19,0,0,1,2.22-1.48,20.89,20.89,0,0,1,4.85-2,20.47,20.47,0,0,1,2.56-.55C75.92,172.75,75.92,194.52,75.91,204.28Zm7.61-53.73a20.72,20.72,0,0,1,4.7,1.68A19.57,19.57,0,0,1,92.36,155a27.3,27.3,0,0,1,3.7,3.83,27,27,0,0,1,4.8,9.37,27.32,27.32,0,0,1-2.34,20.68c-.21.4-.44.79-.68,1.17s-.47.75-.71,1.1l-.17.26-.09.14,0,0,.06-.07s0,0,0,0h0l-.34.4c-.27.31-.58.64-.9,1a37.69,37.69,0,0,1-4.38,3.8A46.67,46.67,0,0,1,81,202.51V150.16A22,22,0,0,1,83.52,150.55ZM107,35.77a44,44,0,0,1-3.36,12.8,54.9,54.9,0,0,1-3,6,53.69,53.69,0,0,1-3.83,5.59A63.3,63.3,0,0,1,87.28,70,62.85,62.85,0,0,1,81.73,74l-.88.57c-.08-7.92,0-22,1.16-31a57.89,57.89,0,0,1,3.45-11.11l.57-1.3.63-1.27.3-.63.35-.62L88,27.42a41.23,41.23,0,0,1,3.15-4.51,31.42,31.42,0,0,1,7.91-7l0,0a4.09,4.09,0,0,1,6.33,2.54,40.89,40.89,0,0,1,1,4A43.26,43.26,0,0,1,107,35.77Zm1-23.4h0S108.12,12.35,108,12.37Z"/></g></g></svg>